<svg width="320" height="180" viewBox="0 0 320 180" fill="none" xmlns="http://www.w3.org/2000/svg">
<rect width="320" height="180" rx="10" fill="url(#paint0_linear_3_2)"/>
<path d="M94.5363 55V37.5455H105.718V40.196H97.6982V44.9347H104.951V47.5852H97.6982V55H94.5363ZM112.268 37.5455V55H109.182V37.5455H112.268ZM119.927 55.2642C119.098 55.2642 118.351 55.1165 117.686 54.821C117.027 54.5199 116.504 54.0767 116.118 53.4915C115.737 52.9062 115.547 52.1847 115.547 51.3267C115.547 50.5881 115.683 49.9773 115.956 49.4943C116.228 49.0114 116.601 48.625 117.072 48.3352C117.544 48.0455 118.075 47.8267 118.666 47.679C119.263 47.5256 119.879 47.4148 120.515 47.3466C121.282 47.267 121.905 47.196 122.382 47.1335C122.859 47.0653 123.206 46.9631 123.422 46.8267C123.643 46.6847 123.754 46.4659 123.754 46.1705V46.1193C123.754 45.4773 123.564 44.9801 123.183 44.6278C122.802 44.2756 122.254 44.0994 121.538 44.0994C120.782 44.0994 120.183 44.2642 119.74 44.5938C119.302 44.9233 119.007 45.3125 118.853 45.7614L115.973 45.3523C116.2 44.5568 116.575 43.892 117.098 43.358C117.62 42.8182 118.26 42.4148 119.015 42.1477C119.771 41.875 120.606 41.7386 121.521 41.7386C122.152 41.7386 122.78 41.8125 123.405 41.9602C124.03 42.108 124.601 42.3523 125.118 42.6932C125.635 43.0284 126.049 43.4858 126.362 44.0653C126.68 44.6449 126.839 45.3693 126.839 46.2386V55H123.873V53.2017H123.771C123.584 53.5653 123.319 53.9062 122.978 54.2244C122.643 54.5369 122.22 54.7898 121.709 54.983C121.203 55.1705 120.609 55.2642 119.927 55.2642ZM120.728 52.9972C121.348 52.9972 121.885 52.875 122.339 52.6307C122.794 52.3807 123.143 52.0511 123.388 51.642C123.638 51.233 123.763 50.7869 123.763 50.304V48.7614C123.666 48.8409 123.501 48.9148 123.268 48.983C123.041 49.0511 122.785 49.1108 122.501 49.1619C122.217 49.2131 121.936 49.2585 121.657 49.2983C121.379 49.3381 121.138 49.3722 120.933 49.4006C120.473 49.4631 120.061 49.5653 119.697 49.7074C119.334 49.8494 119.047 50.0483 118.836 50.304C118.626 50.554 118.521 50.8778 118.521 51.2756C118.521 51.8438 118.728 52.2727 119.143 52.5625C119.558 52.8523 120.086 52.9972 120.728 52.9972ZM141.008 45.3693L138.196 45.6761C138.116 45.392 137.977 45.125 137.778 44.875C137.585 44.625 137.323 44.4233 136.994 44.2699C136.664 44.1165 136.261 44.0398 135.784 44.0398C135.142 44.0398 134.602 44.179 134.164 44.4574C133.732 44.7358 133.519 45.0966 133.525 45.5398C133.519 45.9205 133.659 46.2301 133.943 46.4688C134.232 46.7074 134.71 46.9034 135.375 47.0568L137.607 47.5341C138.846 47.8011 139.767 48.2244 140.369 48.804C140.977 49.3835 141.284 50.142 141.289 51.0795C141.284 51.9034 141.042 52.6307 140.565 53.2614C140.093 53.8864 139.437 54.375 138.596 54.7273C137.755 55.0795 136.789 55.2557 135.698 55.2557C134.096 55.2557 132.806 54.9205 131.829 54.25C130.852 53.5739 130.269 52.6335 130.082 51.429L133.09 51.1392C133.227 51.7301 133.517 52.1761 133.96 52.4773C134.403 52.7784 134.98 52.929 135.69 52.929C136.423 52.929 137.011 52.7784 137.454 52.4773C137.903 52.1761 138.127 51.804 138.127 51.3608C138.127 50.9858 137.982 50.6761 137.693 50.4318C137.409 50.1875 136.965 50 136.363 49.8693L134.13 49.4006C132.875 49.1392 131.946 48.6989 131.343 48.0795C130.741 47.4545 130.443 46.6648 130.448 45.7102C130.443 44.9034 130.661 44.2045 131.105 43.6136C131.554 43.017 132.176 42.5568 132.971 42.233C133.772 41.9034 134.696 41.7386 135.741 41.7386C137.275 41.7386 138.482 42.0653 139.363 42.7188C140.25 43.3722 140.798 44.2557 141.008 45.3693ZM147.639 47.3295V55H144.553V37.5455H147.57V44.1335H147.724C148.031 43.3949 148.505 42.8125 149.147 42.3864C149.795 41.9545 150.619 41.7386 151.619 41.7386C152.528 41.7386 153.32 41.929 153.997 42.3097C154.673 42.6903 155.195 43.2472 155.565 43.9801C155.94 44.7131 156.127 45.608 156.127 46.6648V55H153.042V47.142C153.042 46.2614 152.815 45.5767 152.36 45.0881C151.911 44.5937 151.281 44.3466 150.468 44.3466C149.923 44.3466 149.434 44.4659 149.002 44.7045C148.576 44.9375 148.241 45.2756 147.997 45.7188C147.758 46.1619 147.639 46.6989 147.639 47.3295ZM165.702 55.2557C164.396 55.2557 163.273 54.9688 162.336 54.3949C161.404 53.821 160.685 53.0284 160.18 52.017C159.68 51 159.43 49.8295 159.43 48.5057C159.43 47.1761 159.685 46.0028 160.197 44.9858C160.708 43.9631 161.43 43.1676 162.361 42.5994C163.299 42.0256 164.407 41.7386 165.685 41.7386C166.748 41.7386 167.688 41.9347 168.506 42.3267C169.33 42.7131 169.986 43.2614 170.475 43.9716C170.964 44.6761 171.242 45.5 171.31 46.4432H168.361C168.242 45.8125 167.958 45.2869 167.509 44.8665C167.066 44.4403 166.472 44.2273 165.728 44.2273C165.097 44.2273 164.543 44.3977 164.066 44.7386C163.589 45.0739 163.217 45.5568 162.949 46.1875C162.688 46.8182 162.557 47.5739 162.557 48.4545C162.557 49.3466 162.688 50.1136 162.949 50.7557C163.211 51.392 163.577 51.8835 164.049 52.2301C164.526 52.571 165.086 52.7415 165.728 52.7415C166.182 52.7415 166.589 52.6562 166.947 52.4858C167.31 52.3097 167.614 52.0568 167.859 51.7273C168.103 51.3977 168.271 50.9972 168.361 50.5256H171.31C171.236 51.4517 170.964 52.2727 170.492 52.9886C170.021 53.6989 169.378 54.2557 168.566 54.6591C167.753 55.0568 166.799 55.2557 165.702 55.2557ZM178.331 55.2642C177.501 55.2642 176.754 55.1165 176.089 54.821C175.43 54.5199 174.907 54.0767 174.521 53.4915C174.14 52.9062 173.95 52.1847 173.95 51.3267C173.95 50.5881 174.086 49.9773 174.359 49.4943C174.632 49.0114 175.004 48.625 175.476 48.3352C175.947 48.0455 176.478 47.8267 177.069 47.679C177.666 47.5256 178.282 47.4148 178.919 47.3466C179.686 47.267 180.308 47.196 180.785 47.1335C181.263 47.0653 181.609 46.9631 181.825 46.8267C182.047 46.6847 182.157 46.4659 182.157 46.1705V46.1193C182.157 45.4773 181.967 44.9801 181.586 44.6278C181.206 44.2756 180.657 44.0994 179.942 44.0994C179.186 44.0994 178.586 44.2642 178.143 44.5938C177.706 44.9233 177.41 45.3125 177.257 45.7614L174.376 45.3523C174.603 44.5568 174.978 43.892 175.501 43.358C176.024 42.8182 176.663 42.4148 177.419 42.1477C178.174 41.875 179.01 41.7386 179.924 41.7386C180.555 41.7386 181.183 41.8125 181.808 41.9602C182.433 42.108 183.004 42.3523 183.521 42.6932C184.038 43.0284 184.453 43.4858 184.765 44.0653C185.084 44.6449 185.243 45.3693 185.243 46.2386V55H182.277V53.2017H182.174C181.987 53.5653 181.723 53.9062 181.382 54.2244C181.047 54.5369 180.623 54.7898 180.112 54.983C179.606 55.1705 179.013 55.2642 178.331 55.2642ZM179.132 52.9972C179.751 52.9972 180.288 52.875 180.743 52.6307C181.197 52.3807 181.547 52.0511 181.791 51.642C182.041 51.233 182.166 50.7869 182.166 50.304V48.7614C182.069 48.8409 181.905 48.9148 181.672 48.983C181.444 49.0511 181.189 49.1108 180.905 49.1619C180.62 49.2131 180.339 49.2585 180.061 49.2983C179.782 49.3381 179.541 49.3722 179.336 49.4006C178.876 49.4631 178.464 49.5653 178.101 49.7074C177.737 49.8494 177.45 50.0483 177.24 50.304C177.03 50.554 176.924 50.8778 176.924 51.2756C176.924 51.8438 177.132 52.2727 177.547 52.5625C177.961 52.8523 178.49 52.9972 179.132 52.9972ZM189.065 55V41.9091H192.056V44.0909H192.193C192.431 43.3352 192.84 42.7528 193.42 42.3438C194.005 41.929 194.673 41.7216 195.423 41.7216C195.593 41.7216 195.784 41.7301 195.994 41.7472C196.21 41.7585 196.389 41.7784 196.531 41.8068V44.6449C196.4 44.5994 196.193 44.5597 195.909 44.5256C195.63 44.4858 195.36 44.4659 195.099 44.4659C194.537 44.4659 194.031 44.5881 193.582 44.8324C193.139 45.071 192.789 45.4034 192.534 45.8295C192.278 46.2557 192.15 46.7472 192.15 47.304V55H189.065ZM203.619 55.2301C202.591 55.2301 201.671 54.9659 200.858 54.4375C200.046 53.9091 199.404 53.142 198.932 52.1364C198.46 51.1307 198.225 49.9091 198.225 48.4716C198.225 47.017 198.463 45.7898 198.94 44.7898C199.423 43.7841 200.074 43.0256 200.892 42.5142C201.71 41.9972 202.622 41.7386 203.628 41.7386C204.395 41.7386 205.026 41.8693 205.52 42.1307C206.014 42.3864 206.406 42.696 206.696 43.0597C206.986 43.4176 207.21 43.7557 207.369 44.0739H207.497V37.5455H210.591V55H207.557V52.9375H207.369C207.21 53.2557 206.98 53.5937 206.679 53.9517C206.378 54.304 205.98 54.6051 205.486 54.8551C204.992 55.1051 204.369 55.2301 203.619 55.2301ZM204.48 52.6989C205.134 52.6989 205.69 52.5227 206.151 52.1705C206.611 51.8125 206.96 51.3153 207.199 50.679C207.438 50.0426 207.557 49.3011 207.557 48.4545C207.557 47.608 207.438 46.8722 207.199 46.2472C206.966 45.6222 206.619 45.1364 206.159 44.7898C205.705 44.4432 205.145 44.2699 204.48 44.2699C203.793 44.2699 203.219 44.4489 202.759 44.8068C202.298 45.1648 201.952 45.6591 201.719 46.2898C201.486 46.9205 201.369 47.642 201.369 48.4545C201.369 49.2727 201.486 50.0028 201.719 50.6449C201.958 51.2812 202.307 51.7841 202.767 52.1534C203.233 52.517 203.804 52.6989 204.48 52.6989ZM224.945 45.3693L222.133 45.6761C222.053 45.392 221.914 45.125 221.715 44.875C221.522 44.625 221.261 44.4233 220.931 44.2699C220.602 44.1165 220.198 44.0398 219.721 44.0398C219.079 44.0398 218.539 44.179 218.102 44.4574C217.67 44.7358 217.457 45.0966 217.462 45.5398C217.457 45.9205 217.596 46.2301 217.88 46.4688C218.17 46.7074 218.647 46.9034 219.312 47.0568L221.545 47.5341C222.783 47.8011 223.704 48.2244 224.306 48.804C224.914 49.3835 225.221 50.142 225.227 51.0795C225.221 51.9034 224.979 52.6307 224.502 53.2614C224.03 53.8864 223.374 54.375 222.533 54.7273C221.692 55.0795 220.727 55.2557 219.636 55.2557C218.033 55.2557 216.744 54.9205 215.766 54.25C214.789 53.5739 214.207 52.6335 214.019 51.429L217.028 51.1392C217.164 51.7301 217.454 52.1761 217.897 52.4773C218.34 52.7784 218.917 52.929 219.627 52.929C220.36 52.929 220.948 52.7784 221.391 52.4773C221.84 52.1761 222.065 51.804 222.065 51.3608C222.065 50.9858 221.92 50.6761 221.63 50.4318C221.346 50.1875 220.903 50 220.3 49.8693L218.067 49.4006C216.812 49.1392 215.883 48.6989 215.28 48.0795C214.678 47.4545 214.38 46.6648 214.386 45.7102C214.38 44.9034 214.599 44.2045 215.042 43.6136C215.491 43.017 216.113 42.5568 216.908 42.233C217.709 41.9034 218.633 41.7386 219.678 41.7386C221.212 41.7386 222.42 42.0653 223.3 42.7188C224.187 43.3722 224.735 44.2557 224.945 45.3693Z" fill="#292929"/>
<path d="M55.8479 88V77.8182H57.3841V86.6776H61.9978V88H55.8479ZM66.0821 88.1541C65.3298 88.1541 64.6818 87.9934 64.1382 87.6719C63.598 87.3471 63.1804 86.8913 62.8854 86.3047C62.5937 85.7147 62.4479 85.0237 62.4479 84.2315C62.4479 83.4493 62.5937 82.7599 62.8854 82.1634C63.1804 81.5668 63.5914 81.1011 64.1183 80.7663C64.6486 80.4316 65.2684 80.2642 65.9777 80.2642C66.4086 80.2642 66.8262 80.3355 67.2306 80.478C67.6349 80.6205 67.9978 80.8442 68.3193 81.1491C68.6408 81.4541 68.8944 81.8501 69.08 82.3374C69.2656 82.8213 69.3584 83.4096 69.3584 84.1023V84.6293H63.2881V83.5156H67.9017C67.9017 83.1245 67.8222 82.7782 67.6631 82.4766C67.504 82.1716 67.2803 81.9313 66.9919 81.7557C66.7069 81.58 66.3721 81.4922 65.9877 81.4922C65.57 81.4922 65.2055 81.5949 64.8939 81.8004C64.5857 82.0026 64.347 82.2678 64.178 82.5959C64.0123 82.9207 63.9294 83.2737 63.9294 83.6548V84.5249C63.9294 85.0353 64.0189 85.4695 64.1979 85.8274C64.3802 86.1854 64.6337 86.4588 64.9585 86.6477C65.2834 86.8333 65.6628 86.9261 66.097 86.9261C66.3788 86.9261 66.6356 86.8864 66.8676 86.8068C67.0996 86.724 67.3002 86.6013 67.4692 86.4389C67.6382 86.2765 67.7675 86.076 67.857 85.8374L69.2639 86.0909C69.1512 86.5052 68.9491 86.8681 68.6574 87.1797C68.3691 87.4879 68.0061 87.7282 67.5686 87.9006C67.1344 88.0696 66.6389 88.1541 66.0821 88.1541ZM72.39 88.169C71.9061 88.169 71.4686 88.0795 71.0775 87.9006C70.6864 87.7183 70.3765 87.4548 70.1478 87.1101C69.9225 86.7654 69.8098 86.3428 69.8098 85.8423C69.8098 85.4115 69.8926 85.0568 70.0583 84.7784C70.2241 84.5 70.4478 84.2796 70.7295 84.1172C71.0112 83.9548 71.3261 83.8321 71.6741 83.7493C72.0221 83.6664 72.3768 83.6035 72.738 83.5604C73.1954 83.5073 73.5666 83.4643 73.8517 83.4311C74.1367 83.3946 74.3439 83.3366 74.4731 83.2571C74.6024 83.1776 74.667 83.0483 74.667 82.8693V82.8345C74.667 82.4003 74.5444 82.0639 74.2991 81.8253C74.0572 81.5866 73.6959 81.4673 73.2153 81.4673C72.7148 81.4673 72.3204 81.5784 72.0321 81.8004C71.747 82.0192 71.5498 82.2628 71.4405 82.5312L70.0434 82.2131C70.2092 81.7491 70.4511 81.3745 70.7693 81.0895C71.0908 80.8011 71.4603 80.5923 71.878 80.4631C72.2956 80.3305 72.7347 80.2642 73.1954 80.2642C73.5003 80.2642 73.8235 80.3007 74.1649 80.3736C74.5096 80.4432 74.8311 80.5724 75.1294 80.7614C75.431 80.9503 75.6779 81.2204 75.8701 81.5717C76.0624 81.9197 76.1585 82.3722 76.1585 82.929V88H74.7068V86.956H74.6471C74.551 87.1482 74.4068 87.3371 74.2146 87.5227C74.0224 87.7083 73.7754 87.8625 73.4738 87.9851C73.1722 88.1077 72.811 88.169 72.39 88.169ZM72.7132 86.9759C73.1242 86.9759 73.4755 86.8946 73.7672 86.7322C74.0621 86.5698 74.2859 86.3577 74.4383 86.0959C74.5941 85.8307 74.672 85.5473 74.672 85.2457V84.2614C74.619 84.3144 74.5162 84.3641 74.3637 84.4105C74.2146 84.4536 74.0439 84.4917 73.8517 84.5249C73.6594 84.5547 73.4722 84.5829 73.2899 84.6094C73.1076 84.6326 72.9551 84.6525 72.8325 84.669C72.5441 84.7055 72.2807 84.7668 72.042 84.853C71.8067 84.9392 71.6178 85.0634 71.4753 85.2259C71.336 85.3849 71.2664 85.5971 71.2664 85.8622C71.2664 86.2301 71.4023 86.5085 71.6741 86.6974C71.9459 86.883 72.2923 86.9759 72.7132 86.9759ZM77.2984 88V80.3636H78.7352V81.5767H78.8148C78.954 81.1657 79.1992 80.8426 79.5506 80.6072C79.9052 80.3686 80.3062 80.2493 80.7537 80.2493C80.8465 80.2493 80.9559 80.2526 81.0818 80.2592C81.2111 80.2659 81.3122 80.2741 81.3851 80.2841V81.706C81.3254 81.6894 81.2194 81.6712 81.0669 81.6513C80.9144 81.6281 80.762 81.6165 80.6095 81.6165C80.2582 81.6165 79.945 81.6911 79.6699 81.8402C79.3981 81.986 79.1827 82.1899 79.0236 82.4517C78.8645 82.7102 78.7849 83.0052 78.7849 83.3366V88H77.2984ZM83.318 83.4659V88H81.8315V80.3636H83.2583V81.6065H83.3528C83.5284 81.2022 83.8035 80.8774 84.1781 80.6321C84.5559 80.3868 85.0315 80.2642 85.6049 80.2642C86.1253 80.2642 86.581 80.3736 86.9721 80.5923C87.3632 80.8078 87.6665 81.1293 87.8819 81.5568C88.0973 81.9844 88.2051 82.513 88.2051 83.1428V88H86.7185V83.3217C86.7185 82.7682 86.5744 82.3357 86.286 82.0241C85.9977 81.7093 85.6016 81.5518 85.0978 81.5518C84.7531 81.5518 84.4465 81.6264 84.1781 81.7756C83.9129 81.9247 83.7024 82.1435 83.5467 82.4318C83.3942 82.7169 83.318 83.0616 83.318 83.4659ZM93.7102 77.8182V88H92.2237V77.8182H93.7102ZM97.0924 88.169C96.6085 88.169 96.171 88.0795 95.7799 87.9006C95.3888 87.7183 95.0789 87.4548 94.8502 87.1101C94.6248 86.7654 94.5121 86.3428 94.5121 85.8423C94.5121 85.4115 94.595 85.0568 94.7607 84.7784C94.9264 84.5 95.1501 84.2796 95.4319 84.1172C95.7136 83.9548 96.0284 83.8321 96.3765 83.7493C96.7245 83.6664 97.0791 83.6035 97.4404 83.5604C97.8978 83.5073 98.269 83.4643 98.554 83.4311C98.8391 83.3946 99.0462 83.3366 99.1755 83.2571C99.3047 83.1776 99.3694 83.0483 99.3694 82.8693V82.8345C99.3694 82.4003 99.2467 82.0639 99.0015 81.8253C98.7595 81.5866 98.3982 81.4673 97.9176 81.4673C97.4172 81.4673 97.0228 81.5784 96.7344 81.8004C96.4494 82.0192 96.2522 82.2628 96.1428 82.5312L94.7458 82.2131C94.9115 81.7491 95.1534 81.3745 95.4716 81.0895C95.7931 80.8011 96.1627 80.5923 96.5803 80.4631C96.9979 80.3305 97.4371 80.2642 97.8978 80.2642C98.2027 80.2642 98.5258 80.3007 98.8672 80.3736C99.2119 80.4432 99.5334 80.5724 99.8317 80.7614C100.133 80.9503 100.38 81.2204 100.572 81.5717C100.765 81.9197 100.861 82.3722 100.861 82.929V88H99.4091V86.956H99.3495C99.2533 87.1482 99.1092 87.3371 98.9169 87.5227C98.7247 87.7083 98.4778 87.8625 98.1762 87.9851C97.8746 88.1077 97.5133 88.169 97.0924 88.169ZM97.4155 86.9759C97.8265 86.9759 98.1778 86.8946 98.4695 86.7322C98.7645 86.5698 98.9882 86.3577 99.1407 86.0959C99.2964 85.8307 99.3743 85.5473 99.3743 85.2457V84.2614C99.3213 84.3144 99.2185 84.3641 99.0661 84.4105C98.9169 84.4536 98.7462 84.4917 98.554 84.5249C98.3618 84.5547 98.1745 84.5829 97.9922 84.6094C97.8099 84.6326 97.6575 84.6525 97.5348 84.669C97.2465 84.7055 96.983 84.7668 96.7444 84.853C96.509 84.9392 96.3201 85.0634 96.1776 85.2259C96.0384 85.3849 95.9688 85.5971 95.9688 85.8622C95.9688 86.2301 96.1047 86.5085 96.3765 86.6974C96.6482 86.883 96.9946 86.9759 97.4155 86.9759ZM103.487 83.4659V88H102.001V80.3636H103.428V81.6065H103.522C103.698 81.2022 103.973 80.8774 104.347 80.6321C104.725 80.3868 105.201 80.2642 105.774 80.2642C106.295 80.2642 106.75 80.3736 107.141 80.5923C107.532 80.8078 107.836 81.1293 108.051 81.5568C108.267 81.9844 108.374 82.513 108.374 83.1428V88H106.888V83.3217C106.888 82.7682 106.744 82.3357 106.455 82.0241C106.167 81.7093 105.771 81.5518 105.267 81.5518C104.922 81.5518 104.616 81.6264 104.347 81.7756C104.082 81.9247 103.872 82.1435 103.716 82.4318C103.564 82.7169 103.487 83.0616 103.487 83.4659ZM112.73 91.0227C112.123 91.0227 111.601 90.9432 111.164 90.7841C110.729 90.625 110.375 90.4145 110.1 90.1527C109.825 89.8909 109.619 89.6042 109.483 89.2926L110.761 88.7656C110.85 88.9115 110.97 89.0656 111.119 89.228C111.271 89.3937 111.477 89.5346 111.735 89.6506C111.997 89.7666 112.334 89.8246 112.745 89.8246C113.308 89.8246 113.774 89.687 114.142 89.4119C114.509 89.1402 114.693 88.706 114.693 88.1094V86.608H114.599C114.509 86.7704 114.38 86.951 114.211 87.1499C114.045 87.3487 113.817 87.5211 113.525 87.6669C113.233 87.8127 112.854 87.8857 112.387 87.8857C111.783 87.8857 111.24 87.7448 110.756 87.4631C110.275 87.178 109.894 86.7588 109.612 86.2053C109.334 85.6484 109.195 84.964 109.195 84.152C109.195 83.34 109.332 82.6439 109.608 82.0639C109.886 81.4839 110.267 81.0398 110.751 80.7315C111.235 80.42 111.783 80.2642 112.397 80.2642C112.871 80.2642 113.253 80.3438 113.545 80.5028C113.837 80.6586 114.064 80.8409 114.226 81.0497C114.392 81.2585 114.519 81.4425 114.609 81.6016H114.718V80.3636H116.175V88.169C116.175 88.8253 116.023 89.3639 115.718 89.7848C115.413 90.2057 115 90.5173 114.48 90.7195C113.963 90.9216 113.379 91.0227 112.73 91.0227ZM112.715 86.6527C113.142 86.6527 113.504 86.5533 113.799 86.3544C114.097 86.1522 114.322 85.8639 114.475 85.4893C114.63 85.1115 114.708 84.6591 114.708 84.1321C114.708 83.6184 114.632 83.166 114.48 82.7749C114.327 82.3838 114.103 82.0788 113.809 81.8601C113.514 81.638 113.149 81.527 112.715 81.527C112.267 81.527 111.894 81.643 111.596 81.875C111.298 82.1037 111.072 82.4152 110.92 82.8097C110.771 83.2041 110.696 83.6449 110.696 84.1321C110.696 84.6326 110.773 85.0717 110.925 85.4496C111.077 85.8274 111.303 86.1224 111.601 86.3345C111.903 86.5466 112.274 86.6527 112.715 86.6527ZM122.166 84.8331V80.3636H123.657V88H122.196V86.6776H122.116C121.941 87.0852 121.659 87.425 121.271 87.6967C120.887 87.9652 120.408 88.0994 119.834 88.0994C119.344 88.0994 118.91 87.9917 118.532 87.7763C118.157 87.5575 117.862 87.2344 117.647 86.8068C117.435 86.3793 117.329 85.8506 117.329 85.2209V80.3636H118.815V85.0419C118.815 85.5623 118.959 85.9766 119.248 86.2848C119.536 86.593 119.91 86.7472 120.371 86.7472C120.65 86.7472 120.926 86.6776 121.201 86.5384C121.48 86.3991 121.71 86.1887 121.893 85.907C122.078 85.6252 122.169 85.2673 122.166 84.8331ZM127.037 88.169C126.553 88.169 126.116 88.0795 125.725 87.9006C125.333 87.7183 125.024 87.4548 124.795 87.1101C124.569 86.7654 124.457 86.3428 124.457 85.8423C124.457 85.4115 124.54 85.0568 124.705 84.7784C124.871 84.5 125.095 84.2796 125.377 84.1172C125.658 83.9548 125.973 83.8321 126.321 83.7493C126.669 83.6664 127.024 83.6035 127.385 83.5604C127.842 83.5073 128.214 83.4643 128.499 83.4311C128.784 83.3946 128.991 83.3366 129.12 83.2571C129.249 83.1776 129.314 83.0483 129.314 82.8693V82.8345C129.314 82.4003 129.191 82.0639 128.946 81.8253C128.704 81.5866 128.343 81.4673 127.862 81.4673C127.362 81.4673 126.967 81.5784 126.679 81.8004C126.394 82.0192 126.197 82.2628 126.087 82.5312L124.69 82.2131C124.856 81.7491 125.098 81.3745 125.416 81.0895C125.738 80.8011 126.107 80.5923 126.525 80.4631C126.943 80.3305 127.382 80.2642 127.842 80.2642C128.147 80.2642 128.471 80.3007 128.812 80.3736C129.157 80.4432 129.478 80.5724 129.776 80.7614C130.078 80.9503 130.325 81.2204 130.517 81.5717C130.709 81.9197 130.806 82.3722 130.806 82.929V88H129.354V86.956H129.294C129.198 87.1482 129.054 87.3371 128.862 87.5227C128.669 87.7083 128.422 87.8625 128.121 87.9851C127.819 88.1077 127.458 88.169 127.037 88.169ZM127.36 86.9759C127.771 86.9759 128.123 86.8946 128.414 86.7322C128.709 86.5698 128.933 86.3577 129.085 86.0959C129.241 85.8307 129.319 85.5473 129.319 85.2457V84.2614C129.266 84.3144 129.163 84.3641 129.011 84.4105C128.862 84.4536 128.691 84.4917 128.499 84.5249C128.306 84.5547 128.119 84.5829 127.937 84.6094C127.755 84.6326 127.602 84.6525 127.48 84.669C127.191 84.7055 126.928 84.7668 126.689 84.853C126.454 84.9392 126.265 85.0634 126.122 85.2259C125.983 85.3849 125.913 85.5971 125.913 85.8622C125.913 86.2301 126.049 86.5085 126.321 86.6974C126.593 86.883 126.939 86.9759 127.36 86.9759ZM135.147 91.0227C134.541 91.0227 134.019 90.9432 133.581 90.7841C133.147 90.625 132.792 90.4145 132.517 90.1527C132.242 89.8909 132.037 89.6042 131.901 89.2926L133.178 88.7656C133.268 88.9115 133.387 89.0656 133.536 89.228C133.689 89.3937 133.894 89.5346 134.153 89.6506C134.415 89.7666 134.751 89.8246 135.162 89.8246C135.726 89.8246 136.191 89.687 136.559 89.4119C136.927 89.1402 137.111 88.706 137.111 88.1094V86.608H137.016C136.927 86.7704 136.798 86.951 136.629 87.1499C136.463 87.3487 136.234 87.5211 135.943 87.6669C135.651 87.8127 135.271 87.8857 134.804 87.8857C134.201 87.8857 133.657 87.7448 133.173 87.4631C132.693 87.178 132.312 86.7588 132.03 86.2053C131.752 85.6484 131.612 84.964 131.612 84.152C131.612 83.34 131.75 82.6439 132.025 82.0639C132.303 81.4839 132.685 81.0398 133.168 80.7315C133.652 80.42 134.201 80.2642 134.814 80.2642C135.288 80.2642 135.671 80.3438 135.963 80.5028C136.254 80.6586 136.481 80.8409 136.644 81.0497C136.809 81.2585 136.937 81.4425 137.026 81.6016H137.136V80.3636H138.592V88.169C138.592 88.8253 138.44 89.3639 138.135 89.7848C137.83 90.2057 137.418 90.5173 136.897 90.7195C136.38 90.9216 135.797 91.0227 135.147 91.0227ZM135.132 86.6527C135.56 86.6527 135.921 86.5533 136.216 86.3544C136.514 86.1522 136.74 85.8639 136.892 85.4893C137.048 85.1115 137.126 84.6591 137.126 84.1321C137.126 83.6184 137.05 83.166 136.897 82.7749C136.745 82.3838 136.521 82.0788 136.226 81.8601C135.931 81.638 135.566 81.527 135.132 81.527C134.685 81.527 134.312 81.643 134.014 81.875C133.715 82.1037 133.49 82.4152 133.338 82.8097C133.188 83.2041 133.114 83.6449 133.114 84.1321C133.114 84.6326 133.19 85.0717 133.342 85.4496C133.495 85.8274 133.72 86.1224 134.019 86.3345C134.32 86.5466 134.691 86.6527 135.132 86.6527ZM143.037 88.1541C142.285 88.1541 141.637 87.9934 141.093 87.6719C140.553 87.3471 140.136 86.8913 139.841 86.3047C139.549 85.7147 139.403 85.0237 139.403 84.2315C139.403 83.4493 139.549 82.7599 139.841 82.1634C140.136 81.5668 140.547 81.1011 141.074 80.7663C141.604 80.4316 142.224 80.2642 142.933 80.2642C143.364 80.2642 143.781 80.3355 144.186 80.478C144.59 80.6205 144.953 80.8442 145.274 81.1491C145.596 81.4541 145.85 81.8501 146.035 82.3374C146.221 82.8213 146.314 83.4096 146.314 84.1023V84.6293H140.243V83.5156H144.857C144.857 83.1245 144.777 82.7782 144.618 82.4766C144.459 82.1716 144.235 81.9313 143.947 81.7557C143.662 81.58 143.327 81.4922 142.943 81.4922C142.525 81.4922 142.161 81.5949 141.849 81.8004C141.541 82.0026 141.302 82.2678 141.133 82.5959C140.967 82.9207 140.885 83.2737 140.885 83.6548V84.5249C140.885 85.0353 140.974 85.4695 141.153 85.8274C141.335 86.1854 141.589 86.4588 141.914 86.6477C142.239 86.8333 142.618 86.9261 143.052 86.9261C143.334 86.9261 143.591 86.8864 143.823 86.8068C144.055 86.724 144.255 86.6013 144.424 86.4389C144.593 86.2765 144.723 86.076 144.812 85.8374L146.219 86.0909C146.106 86.5052 145.904 86.8681 145.613 87.1797C145.324 87.4879 144.961 87.7282 144.524 87.9006C144.09 88.0696 143.594 88.1541 143.037 88.1541ZM152.845 82.228L151.498 82.4666C151.442 82.2943 151.352 82.1302 151.229 81.9744C151.11 81.8187 150.948 81.6911 150.742 81.5916C150.537 81.4922 150.28 81.4425 149.972 81.4425C149.551 81.4425 149.199 81.5369 148.918 81.7259C148.636 81.9115 148.495 82.1518 148.495 82.4467C148.495 82.7019 148.59 82.9074 148.778 83.0632C148.967 83.219 149.272 83.3466 149.693 83.446L150.906 83.7244C151.609 83.8868 152.133 84.1371 152.477 84.4751C152.822 84.8132 152.994 85.2524 152.994 85.7926C152.994 86.25 152.862 86.6577 152.597 87.0156C152.335 87.3703 151.969 87.6487 151.498 87.8509C151.031 88.053 150.489 88.1541 149.872 88.1541C149.017 88.1541 148.319 87.9718 147.779 87.6072C147.239 87.2393 146.907 86.7173 146.785 86.0412L148.222 85.8224C148.311 86.197 148.495 86.4804 148.773 86.6726C149.052 86.8615 149.415 86.956 149.862 86.956C150.349 86.956 150.739 86.8549 151.031 86.6527C151.322 86.4472 151.468 86.197 151.468 85.902C151.468 85.6634 151.379 85.4628 151.2 85.3004C151.024 85.138 150.754 85.0154 150.389 84.9325L149.097 84.6491C148.384 84.4867 147.857 84.2282 147.516 83.8736C147.178 83.5189 147.009 83.0698 147.009 82.5263C147.009 82.0755 147.134 81.6811 147.386 81.343C147.638 81.005 147.986 80.7415 148.43 80.5526C148.875 80.3603 149.383 80.2642 149.957 80.2642C150.782 80.2642 151.432 80.4432 151.906 80.8011C152.38 81.1558 152.693 81.6314 152.845 82.228ZM158.309 88L156.062 80.3636H157.598L159.095 85.9716H159.169L160.671 80.3636H162.207L163.699 85.9467H163.773L165.26 80.3636H166.796L164.554 88H163.037L161.486 82.4865H161.372L159.821 88H158.309ZM167.367 88V80.3636H168.853V88H167.367ZM168.117 79.1854C167.859 79.1854 167.637 79.0992 167.451 78.9268C167.269 78.7512 167.178 78.5424 167.178 78.3004C167.178 78.0552 167.269 77.8464 167.451 77.674C167.637 77.4983 167.859 77.4105 168.117 77.4105C168.376 77.4105 168.596 77.4983 168.778 77.674C168.964 77.8464 169.057 78.0552 169.057 78.3004C169.057 78.5424 168.964 78.7512 168.778 78.9268C168.596 79.0992 168.376 79.1854 168.117 79.1854ZM173.578 80.3636V81.5568H169.406V80.3636H173.578ZM170.525 78.5341H172.011V85.7578C172.011 86.0462 172.055 86.2633 172.141 86.4091C172.227 86.5516 172.338 86.6494 172.474 86.7024C172.613 86.7521 172.764 86.777 172.926 86.777C173.046 86.777 173.15 86.7687 173.239 86.7521C173.329 86.7356 173.399 86.7223 173.448 86.7124L173.717 87.9403C173.631 87.9735 173.508 88.0066 173.349 88.0398C173.19 88.0762 172.991 88.0961 172.752 88.0994C172.361 88.1061 171.997 88.0365 171.658 87.8906C171.32 87.7448 171.047 87.5194 170.838 87.2145C170.629 86.9096 170.525 86.5268 170.525 86.0661V78.5341ZM176.032 83.4659V88H174.546V77.8182H176.013V81.6065H176.107C176.286 81.1955 176.559 80.8691 176.927 80.6271C177.295 80.3852 177.776 80.2642 178.369 80.2642C178.893 80.2642 179.35 80.3719 179.741 80.5874C180.136 80.8028 180.441 81.1243 180.656 81.5518C180.875 81.9761 180.984 82.5064 180.984 83.1428V88H179.498V83.3217C179.498 82.7616 179.353 82.3274 179.065 82.0192C178.777 81.7076 178.376 81.5518 177.862 81.5518C177.511 81.5518 177.196 81.6264 176.917 81.7756C176.642 81.9247 176.425 82.1435 176.266 82.4318C176.11 82.7169 176.032 83.0616 176.032 83.4659ZM188.558 80.3636V81.5568H184.386V80.3636H188.558ZM185.505 78.5341H186.991V85.7578C186.991 86.0462 187.035 86.2633 187.121 86.4091C187.207 86.5516 187.318 86.6494 187.454 86.7024C187.593 86.7521 187.744 86.777 187.906 86.777C188.026 86.777 188.13 86.7687 188.219 86.7521C188.309 86.7356 188.379 86.7223 188.428 86.7124L188.697 87.9403C188.611 87.9735 188.488 88.0066 188.329 88.0398C188.17 88.0762 187.971 88.0961 187.732 88.0994C187.341 88.1061 186.977 88.0365 186.638 87.8906C186.3 87.7448 186.027 87.5194 185.818 87.2145C185.609 86.9096 185.505 86.5268 185.505 86.0661V78.5341ZM191.012 83.4659V88H189.526V77.8182H190.993V81.6065H191.087C191.266 81.1955 191.539 80.8691 191.907 80.6271C192.275 80.3852 192.756 80.2642 193.349 80.2642C193.873 80.2642 194.33 80.3719 194.721 80.5874C195.116 80.8028 195.421 81.1243 195.636 81.5518C195.855 81.9761 195.964 82.5064 195.964 83.1428V88H194.478V83.3217C194.478 82.7616 194.333 82.3274 194.045 82.0192C193.757 81.7076 193.356 81.5518 192.842 81.5518C192.491 81.5518 192.176 81.6264 191.897 81.7756C191.622 81.9247 191.405 82.1435 191.246 82.4318C191.09 82.7169 191.012 83.0616 191.012 83.4659ZM200.399 88.1541C199.647 88.1541 198.999 87.9934 198.455 87.6719C197.915 87.3471 197.497 86.8913 197.202 86.3047C196.911 85.7147 196.765 85.0237 196.765 84.2315C196.765 83.4493 196.911 82.7599 197.202 82.1634C197.497 81.5668 197.908 81.1011 198.435 80.7663C198.966 80.4316 199.585 80.2642 200.295 80.2642C200.725 80.2642 201.143 80.3355 201.547 80.478C201.952 80.6205 202.315 80.8442 202.636 81.1491C202.958 81.4541 203.211 81.8501 203.397 82.3374C203.582 82.8213 203.675 83.4096 203.675 84.1023V84.6293H197.605V83.5156H202.219C202.219 83.1245 202.139 82.7782 201.98 82.4766C201.821 82.1716 201.597 81.9313 201.309 81.7557C201.024 81.58 200.689 81.4922 200.305 81.4922C199.887 81.4922 199.522 81.5949 199.211 81.8004C198.903 82.0026 198.664 82.2678 198.495 82.5959C198.329 82.9207 198.246 83.2737 198.246 83.6548V84.5249C198.246 85.0353 198.336 85.4695 198.515 85.8274C198.697 86.1854 198.951 86.4588 199.275 86.6477C199.6 86.8333 199.98 86.9261 200.414 86.9261C200.696 86.9261 200.953 86.8864 201.185 86.8068C201.417 86.724 201.617 86.6013 201.786 86.4389C201.955 86.2765 202.084 86.076 202.174 85.8374L203.581 86.0909C203.468 86.5052 203.266 86.8681 202.974 87.1797C202.686 87.4879 202.323 87.7282 201.886 87.9006C201.451 88.0696 200.956 88.1541 200.399 88.1541ZM208.836 83.4659V88H207.35V77.8182H208.816V81.6065H208.911C209.09 81.1955 209.363 80.8691 209.731 80.6271C210.099 80.3852 210.58 80.2642 211.173 80.2642C211.697 80.2642 212.154 80.3719 212.545 80.5874C212.939 80.8028 213.244 81.1243 213.46 81.5518C213.679 81.9761 213.788 82.5064 213.788 83.1428V88H212.301V83.3217C212.301 82.7616 212.157 82.3274 211.869 82.0192C211.581 81.7076 211.179 81.5518 210.666 81.5518C210.314 81.5518 210 81.6264 209.721 81.7756C209.446 81.9247 209.229 82.1435 209.07 82.4318C208.914 82.7169 208.836 83.0616 208.836 83.4659ZM218.223 88.1541C217.47 88.1541 216.822 87.9934 216.279 87.6719C215.739 87.3471 215.321 86.8913 215.026 86.3047C214.734 85.7147 214.589 85.0237 214.589 84.2315C214.589 83.4493 214.734 82.7599 215.026 82.1634C215.321 81.5668 215.732 81.1011 216.259 80.7663C216.789 80.4316 217.409 80.2642 218.118 80.2642C218.549 80.2642 218.967 80.3355 219.371 80.478C219.776 80.6205 220.138 80.8442 220.46 81.1491C220.781 81.4541 221.035 81.8501 221.221 82.3374C221.406 82.8213 221.499 83.4096 221.499 84.1023V84.6293H215.429V83.5156H220.042C220.042 83.1245 219.963 82.7782 219.804 82.4766C219.645 82.1716 219.421 81.9313 219.133 81.7557C218.848 81.58 218.513 81.4922 218.128 81.4922C217.711 81.4922 217.346 81.5949 217.035 81.8004C216.726 82.0026 216.488 82.2678 216.319 82.5959C216.153 82.9207 216.07 83.2737 216.07 83.6548V84.5249C216.07 85.0353 216.16 85.4695 216.339 85.8274C216.521 86.1854 216.774 86.4588 217.099 86.6477C217.424 86.8333 217.803 86.9261 218.238 86.9261C218.519 86.9261 218.776 86.8864 219.008 86.8068C219.24 86.724 219.441 86.6013 219.61 86.4389C219.779 86.2765 219.908 86.076 219.998 85.8374L221.405 86.0909C221.292 86.5052 221.09 86.8681 220.798 87.1797C220.51 87.4879 220.147 87.7282 219.709 87.9006C219.275 88.0696 218.78 88.1541 218.223 88.1541ZM223.795 77.8182V88H222.308V77.8182H223.795ZM224.955 90.8636V80.3636H226.406V81.6016H226.531C226.617 81.4425 226.741 81.2585 226.904 81.0497C227.066 80.8409 227.291 80.6586 227.58 80.5028C227.868 80.3438 228.249 80.2642 228.723 80.2642C229.34 80.2642 229.89 80.42 230.374 80.7315C230.858 81.0431 231.237 81.4922 231.512 82.0788C231.791 82.6655 231.93 83.3714 231.93 84.1967C231.93 85.022 231.792 85.7296 231.517 86.3196C231.242 86.9062 230.864 87.3587 230.384 87.6768C229.903 87.9917 229.355 88.1491 228.738 88.1491C228.274 88.1491 227.895 88.0713 227.6 87.9155C227.308 87.7597 227.079 87.5774 226.913 87.3686C226.748 87.1598 226.62 86.9742 226.531 86.8118H226.441V90.8636H224.955ZM226.411 84.1818C226.411 84.7187 226.489 85.1894 226.645 85.5938C226.801 85.9981 227.026 86.3146 227.321 86.5433C227.616 86.7687 227.977 86.8814 228.405 86.8814C228.849 86.8814 229.22 86.7637 229.519 86.5284C229.817 86.2898 230.042 85.9666 230.195 85.5589C230.351 85.1513 230.428 84.6922 230.428 84.1818C230.428 83.678 230.352 83.2256 230.2 82.8246C230.051 82.4235 229.825 82.107 229.524 81.875C229.225 81.643 228.852 81.527 228.405 81.527C227.974 81.527 227.61 81.638 227.311 81.8601C227.016 82.0821 226.793 82.392 226.64 82.7898C226.488 83.1875 226.411 83.6515 226.411 84.1818ZM238.837 88.1541C238.121 88.1541 237.496 87.9901 236.963 87.6619C236.429 87.3338 236.015 86.8748 235.72 86.2848C235.425 85.6948 235.277 85.0054 235.277 84.2166C235.277 83.4245 235.425 82.7318 235.72 82.1385C236.015 81.5452 236.429 81.0845 236.963 80.7564C237.496 80.4283 238.121 80.2642 238.837 80.2642C239.553 80.2642 240.178 80.4283 240.711 80.7564C241.245 81.0845 241.659 81.5452 241.954 82.1385C242.249 82.7318 242.397 83.4245 242.397 84.2166C242.397 85.0054 242.249 85.6948 241.954 86.2848C241.659 86.8748 241.245 87.3338 240.711 87.6619C240.178 87.9901 239.553 88.1541 238.837 88.1541ZM238.842 86.9062C239.306 86.9062 239.69 86.7836 239.995 86.5384C240.3 86.2931 240.526 85.9666 240.672 85.5589C240.821 85.1513 240.895 84.7022 240.895 84.2116C240.895 83.7244 240.821 83.277 240.672 82.8693C240.526 82.4583 240.3 82.1286 239.995 81.88C239.69 81.6314 239.306 81.5071 238.842 81.5071C238.375 81.5071 237.987 81.6314 237.679 81.88C237.374 82.1286 237.147 82.4583 236.998 82.8693C236.852 83.277 236.779 83.7244 236.779 84.2116C236.779 84.7022 236.852 85.1513 236.998 85.5589C237.147 85.9666 237.374 86.2931 237.679 86.5384C237.987 86.7836 238.375 86.9062 238.842 86.9062ZM246.85 80.3636V81.5568H242.535V80.3636H246.85ZM243.718 88V79.4787C243.718 79.0014 243.822 78.6053 244.031 78.2905C244.24 77.9723 244.517 77.7353 244.862 77.5795C245.206 77.4205 245.581 77.3409 245.985 77.3409C246.283 77.3409 246.539 77.3658 246.751 77.4155C246.963 77.4619 247.12 77.505 247.223 77.5447L246.875 78.7479C246.805 78.728 246.716 78.7048 246.607 78.6783C246.497 78.6484 246.365 78.6335 246.209 78.6335C245.848 78.6335 245.589 78.723 245.433 78.902C245.281 79.081 245.205 79.3395 245.205 79.6776V88H243.718ZM251.388 88H249.758L253.422 77.8182H255.197L258.861 88H257.23L254.351 79.6676H254.272L251.388 88ZM251.662 84.0128H256.952V85.3054H251.662V84.0128ZM261.027 77.8182V88H259.491V77.8182H261.027ZM263.285 88.0945C263.013 88.0945 262.779 87.9983 262.584 87.8061C262.388 87.6106 262.29 87.3752 262.29 87.1001C262.29 86.8284 262.388 86.5964 262.584 86.4041C262.779 86.2086 263.013 86.1108 263.285 86.1108C263.556 86.1108 263.79 86.2086 263.986 86.4041C264.181 86.5964 264.279 86.8284 264.279 87.1001C264.279 87.2824 264.232 87.4498 264.14 87.6023C264.05 87.7514 263.931 87.8707 263.782 87.9602C263.633 88.0497 263.467 88.0945 263.285 88.0945Z" fill="#3A3A3A"/>
<path d="M54.1116 110V99.8182H57.7408C58.533 99.8182 59.1892 99.9624 59.7096 100.251C60.2299 100.539 60.6194 100.933 60.8779 101.434C61.1364 101.931 61.2657 102.491 61.2657 103.114C61.2657 103.741 61.1348 104.304 60.8729 104.805C60.6144 105.302 60.2233 105.696 59.6996 105.988C59.1793 106.276 58.5247 106.42 57.7359 106.42H55.2401V105.118H57.5967C58.0971 105.118 58.5031 105.032 58.8147 104.859C59.1263 104.684 59.3549 104.445 59.5008 104.143C59.6466 103.842 59.7195 103.499 59.7195 103.114C59.7195 102.73 59.6466 102.388 59.5008 102.09C59.3549 101.792 59.1246 101.558 58.8097 101.389C58.4982 101.22 58.0872 101.136 57.5768 101.136H55.6478V110H54.1116ZM62.1073 110V102.364H63.5441V103.577H63.6237C63.7629 103.166 64.0081 102.843 64.3595 102.607C64.7141 102.369 65.1151 102.249 65.5626 102.249C65.6554 102.249 65.7648 102.253 65.8907 102.259C66.02 102.266 66.1211 102.274 66.194 102.284V103.706C66.1343 103.689 66.0283 103.671 65.8758 103.651C65.7233 103.628 65.5709 103.616 65.4184 103.616C65.0671 103.616 64.7539 103.691 64.4788 103.84C64.207 103.986 63.9916 104.19 63.8325 104.452C63.6734 104.71 63.5938 105.005 63.5938 105.337V110H62.1073ZM68.7943 110.169C68.3104 110.169 67.8729 110.08 67.4818 109.901C67.0907 109.718 66.7808 109.455 66.5521 109.11C66.3268 108.765 66.2141 108.343 66.2141 107.842C66.2141 107.411 66.2969 107.057 66.4626 106.778C66.6284 106.5 66.8521 106.28 67.1338 106.117C67.4155 105.955 67.7304 105.832 68.0784 105.749C68.4264 105.666 68.7811 105.603 69.1423 105.56C69.5997 105.507 69.9709 105.464 70.256 105.431C70.541 105.395 70.7482 105.337 70.8774 105.257C71.0067 105.178 71.0713 105.048 71.0713 104.869V104.835C71.0713 104.4 70.9487 104.064 70.7034 103.825C70.4615 103.587 70.1002 103.467 69.6196 103.467C69.1191 103.467 68.7247 103.578 68.4364 103.8C68.1513 104.019 67.9541 104.263 67.8447 104.531L66.4477 104.213C66.6135 103.749 66.8554 103.375 67.1736 103.089C67.4951 102.801 67.8646 102.592 68.2822 102.463C68.6999 102.33 69.139 102.264 69.5997 102.264C69.9046 102.264 70.2278 102.301 70.5692 102.374C70.9139 102.443 71.2354 102.572 71.5337 102.761C71.8353 102.95 72.0822 103.22 72.2744 103.572C72.4667 103.92 72.5628 104.372 72.5628 104.929V110H71.1111V108.956H71.0514C70.9553 109.148 70.8111 109.337 70.6189 109.523C70.4267 109.708 70.1797 109.862 69.8781 109.985C69.5765 110.108 69.2152 110.169 68.7943 110.169ZM69.1175 108.976C69.5285 108.976 69.8798 108.895 70.1715 108.732C70.4664 108.57 70.6902 108.358 70.8426 108.096C70.9984 107.831 71.0763 107.547 71.0763 107.246V106.261C71.0233 106.314 70.9205 106.364 70.768 106.411C70.6189 106.454 70.4482 106.492 70.256 106.525C70.0637 106.555 69.8765 106.583 69.6942 106.609C69.5119 106.633 69.3594 106.652 69.2368 106.669C68.9484 106.705 68.6849 106.767 68.4463 106.853C68.211 106.939 68.0221 107.063 67.8795 107.226C67.7403 107.385 67.6707 107.597 67.6707 107.862C67.6707 108.23 67.8066 108.509 68.0784 108.697C68.3502 108.883 68.6965 108.976 69.1175 108.976ZM76.9193 110.154C76.1802 110.154 75.5439 109.987 75.0102 109.652C74.4799 109.314 74.0723 108.848 73.7872 108.255C73.5022 107.662 73.3597 106.982 73.3597 106.217C73.3597 105.441 73.5055 104.757 73.7972 104.163C74.0888 103.567 74.4998 103.101 75.0301 102.766C75.5604 102.432 76.1852 102.264 76.9044 102.264C77.4844 102.264 78.0015 102.372 78.4556 102.587C78.9096 102.799 79.2759 103.098 79.5543 103.482C79.836 103.867 80.0034 104.316 80.0564 104.83H78.6097C78.5301 104.472 78.3478 104.163 78.0628 103.905C77.7811 103.646 77.4032 103.517 76.9293 103.517C76.515 103.517 76.1521 103.626 75.8405 103.845C75.5323 104.061 75.292 104.369 75.1196 104.77C74.9473 105.168 74.8611 105.638 74.8611 106.182C74.8611 106.739 74.9456 107.219 75.1147 107.624C75.2837 108.028 75.5223 108.341 75.8306 108.563C76.1421 108.785 76.5084 108.896 76.9293 108.896C77.211 108.896 77.4662 108.845 77.6949 108.742C77.9269 108.636 78.1208 108.485 78.2766 108.29C78.4357 108.094 78.5467 107.859 78.6097 107.584H80.0564C80.0034 108.078 79.8426 108.518 79.5742 108.906C79.3057 109.294 78.9461 109.599 78.4953 109.821C78.0479 110.043 77.5226 110.154 76.9193 110.154ZM84.3707 102.364V103.557H80.1995V102.364H84.3707ZM81.3182 100.534H82.8047V107.758C82.8047 108.046 82.8477 108.263 82.9339 108.409C83.0201 108.552 83.1311 108.649 83.267 108.702C83.4062 108.752 83.557 108.777 83.7194 108.777C83.8388 108.777 83.9432 108.769 84.0326 108.752C84.1221 108.736 84.1917 108.722 84.2415 108.712L84.5099 109.94C84.4237 109.973 84.3011 110.007 84.142 110.04C83.9829 110.076 83.7841 110.096 83.5454 110.099C83.1543 110.106 82.7897 110.036 82.4517 109.891C82.1136 109.745 81.8402 109.519 81.6314 109.214C81.4226 108.91 81.3182 108.527 81.3182 108.066V100.534ZM85.1751 110V102.364H86.6616V110H85.1751ZM85.9258 101.185C85.6673 101.185 85.4452 101.099 85.2596 100.927C85.0773 100.751 84.9862 100.542 84.9862 100.3C84.9862 100.055 85.0773 99.8464 85.2596 99.674C85.4452 99.4983 85.6673 99.4105 85.9258 99.4105C86.1843 99.4105 86.4047 99.4983 86.587 99.674C86.7726 99.8464 86.8654 100.055 86.8654 100.3C86.8654 100.542 86.7726 100.751 86.587 100.927C86.4047 101.099 86.1843 101.185 85.9258 101.185ZM91.038 110.154C90.2989 110.154 89.6625 109.987 89.1289 109.652C88.5986 109.314 88.191 108.848 87.9059 108.255C87.6209 107.662 87.4784 106.982 87.4784 106.217C87.4784 105.441 87.6242 104.757 87.9159 104.163C88.2075 103.567 88.6185 103.101 89.1488 102.766C89.6791 102.432 90.3039 102.264 91.0231 102.264C91.6031 102.264 92.1202 102.372 92.5742 102.587C93.0283 102.799 93.3945 103.098 93.673 103.482C93.9547 103.867 94.1221 104.316 94.1751 104.83H92.7284C92.6488 104.472 92.4665 104.163 92.1815 103.905C91.8998 103.646 91.5219 103.517 91.048 103.517C90.6337 103.517 90.2707 103.626 89.9592 103.845C89.6509 104.061 89.4106 104.369 89.2383 104.77C89.066 105.168 88.9798 105.638 88.9798 106.182C88.9798 106.739 89.0643 107.219 89.2333 107.624C89.4024 108.028 89.641 108.341 89.9492 108.563C90.2608 108.785 90.627 108.896 91.048 108.896C91.3297 108.896 91.5849 108.845 91.8136 108.742C92.0456 108.636 92.2395 108.485 92.3953 108.29C92.5543 108.094 92.6654 107.859 92.7284 107.584H94.1751C94.1221 108.078 93.9613 108.518 93.6928 108.906C93.4244 109.294 93.0648 109.599 92.614 109.821C92.1666 110.043 91.6412 110.154 91.038 110.154ZM98.2159 110.154C97.4636 110.154 96.8156 109.993 96.2721 109.672C95.7318 109.347 95.3142 108.891 95.0192 108.305C94.7275 107.715 94.5817 107.024 94.5817 106.232C94.5817 105.449 94.7275 104.76 95.0192 104.163C95.3142 103.567 95.7252 103.101 96.2522 102.766C96.7825 102.432 97.4023 102.264 98.1115 102.264C98.5424 102.264 98.96 102.335 99.3644 102.478C99.7687 102.621 100.132 102.844 100.453 103.149C100.775 103.454 101.028 103.85 101.214 104.337C101.399 104.821 101.492 105.41 101.492 106.102V106.629H95.4219V105.516H100.036C100.036 105.125 99.956 104.778 99.7969 104.477C99.6378 104.172 99.4141 103.931 99.1257 103.756C98.8407 103.58 98.506 103.492 98.1215 103.492C97.7039 103.492 97.3393 103.595 97.0277 103.8C96.7195 104.003 96.4809 104.268 96.3118 104.596C96.1461 104.921 96.0632 105.274 96.0632 105.655V106.525C96.0632 107.035 96.1527 107.469 96.3317 107.827C96.514 108.185 96.7676 108.459 97.0924 108.648C97.4172 108.833 97.7967 108.926 98.2309 108.926C98.5126 108.926 98.7694 108.886 99.0015 108.807C99.2335 108.724 99.434 108.601 99.603 108.439C99.7721 108.277 99.9013 108.076 99.9908 107.837L101.398 108.091C101.285 108.505 101.083 108.868 100.791 109.18C100.503 109.488 100.14 109.728 99.7024 109.901C99.2683 110.07 98.7728 110.154 98.2159 110.154ZM106.106 112.864C105.884 112.864 105.682 112.845 105.5 112.809C105.317 112.776 105.182 112.739 105.092 112.7L105.45 111.482C105.722 111.554 105.964 111.586 106.176 111.576C106.388 111.566 106.575 111.487 106.738 111.337C106.903 111.188 107.049 110.945 107.175 110.607L107.359 110.099L104.565 102.364H106.156L108.09 108.29H108.169L110.103 102.364H111.699L108.552 111.019C108.406 111.417 108.221 111.753 107.995 112.028C107.77 112.307 107.502 112.516 107.19 112.655C106.879 112.794 106.517 112.864 106.106 112.864ZM115.213 110.154C114.497 110.154 113.872 109.99 113.339 109.662C112.805 109.334 112.391 108.875 112.096 108.285C111.801 107.695 111.654 107.005 111.654 106.217C111.654 105.424 111.801 104.732 112.096 104.138C112.391 103.545 112.805 103.085 113.339 102.756C113.872 102.428 114.497 102.264 115.213 102.264C115.929 102.264 116.554 102.428 117.087 102.756C117.621 103.085 118.035 103.545 118.33 104.138C118.625 104.732 118.773 105.424 118.773 106.217C118.773 107.005 118.625 107.695 118.33 108.285C118.035 108.875 117.621 109.334 117.087 109.662C116.554 109.99 115.929 110.154 115.213 110.154ZM115.218 108.906C115.682 108.906 116.067 108.784 116.372 108.538C116.676 108.293 116.902 107.967 117.048 107.559C117.197 107.151 117.271 106.702 117.271 106.212C117.271 105.724 117.197 105.277 117.048 104.869C116.902 104.458 116.676 104.129 116.372 103.88C116.067 103.631 115.682 103.507 115.218 103.507C114.751 103.507 114.363 103.631 114.055 103.88C113.75 104.129 113.523 104.458 113.374 104.869C113.228 105.277 113.155 105.724 113.155 106.212C113.155 106.702 113.228 107.151 113.374 107.559C113.523 107.967 113.75 108.293 114.055 108.538C114.363 108.784 114.751 108.906 115.218 108.906ZM124.429 106.833V102.364H125.921V110H124.459V108.678H124.38C124.204 109.085 123.922 109.425 123.535 109.697C123.15 109.965 122.671 110.099 122.098 110.099C121.607 110.099 121.173 109.992 120.795 109.776C120.421 109.558 120.126 109.234 119.91 108.807C119.698 108.379 119.592 107.851 119.592 107.221V102.364H121.079V107.042C121.079 107.562 121.223 107.977 121.511 108.285C121.799 108.593 122.174 108.747 122.635 108.747C122.913 108.747 123.19 108.678 123.465 108.538C123.743 108.399 123.974 108.189 124.156 107.907C124.342 107.625 124.433 107.267 124.429 106.833ZM127.078 110V102.364H128.515V103.577H128.595C128.734 103.166 128.979 102.843 129.33 102.607C129.685 102.369 130.086 102.249 130.534 102.249C130.626 102.249 130.736 102.253 130.862 102.259C130.991 102.266 131.092 102.274 131.165 102.284V103.706C131.105 103.689 130.999 103.671 130.847 103.651C130.694 103.628 130.542 103.616 130.389 103.616C130.038 103.616 129.725 103.691 129.45 103.84C129.178 103.986 128.963 104.19 128.803 104.452C128.644 104.71 128.565 105.005 128.565 105.337V110H127.078ZM136.132 110L133.885 102.364H135.421L136.917 107.972H136.992L138.493 102.364H140.03L141.521 107.947H141.596L143.082 102.364H144.618L142.376 110H140.86L139.309 104.487H139.194L137.643 110H136.132ZM148.173 110.154C147.457 110.154 146.833 109.99 146.299 109.662C145.765 109.334 145.351 108.875 145.056 108.285C144.761 107.695 144.614 107.005 144.614 106.217C144.614 105.424 144.761 104.732 145.056 104.138C145.351 103.545 145.765 103.085 146.299 102.756C146.833 102.428 147.457 102.264 148.173 102.264C148.889 102.264 149.514 102.428 150.048 102.756C150.581 103.085 150.996 103.545 151.291 104.138C151.586 104.732 151.733 105.424 151.733 106.217C151.733 107.005 151.586 107.695 151.291 108.285C150.996 108.875 150.581 109.334 150.048 109.662C149.514 109.99 148.889 110.154 148.173 110.154ZM148.178 108.906C148.642 108.906 149.027 108.784 149.332 108.538C149.637 108.293 149.862 107.967 150.008 107.559C150.157 107.151 150.232 106.702 150.232 106.212C150.232 105.724 150.157 105.277 150.008 104.869C149.862 104.458 149.637 104.129 149.332 103.88C149.027 103.631 148.642 103.507 148.178 103.507C147.711 103.507 147.323 103.631 147.015 103.88C146.71 104.129 146.483 104.458 146.334 104.869C146.188 105.277 146.115 105.724 146.115 106.212C146.115 106.702 146.188 107.151 146.334 107.559C146.483 107.967 146.71 108.293 147.015 108.538C147.323 108.784 147.711 108.906 148.178 108.906ZM152.552 110V102.364H153.989V103.577H154.069C154.208 103.166 154.453 102.843 154.804 102.607C155.159 102.369 155.56 102.249 156.008 102.249C156.1 102.249 156.21 102.253 156.336 102.259C156.465 102.266 156.566 102.274 156.639 102.284V103.706C156.579 103.689 156.473 103.671 156.321 103.651C156.168 103.628 156.016 103.616 155.863 103.616C155.512 103.616 155.199 103.691 154.924 103.84C154.652 103.986 154.436 104.19 154.277 104.452C154.118 104.71 154.039 105.005 154.039 105.337V110H152.552ZM159.671 110.149C159.054 110.149 158.504 109.992 158.02 109.677C157.539 109.359 157.162 108.906 156.886 108.32C156.615 107.73 156.479 107.022 156.479 106.197C156.479 105.371 156.616 104.665 156.891 104.079C157.17 103.492 157.551 103.043 158.035 102.732C158.519 102.42 159.067 102.264 159.68 102.264C160.154 102.264 160.536 102.344 160.824 102.503C161.116 102.659 161.341 102.841 161.5 103.05C161.662 103.259 161.788 103.442 161.878 103.602H161.967V99.8182H163.454V110H162.002V108.812H161.878C161.788 108.974 161.659 109.16 161.49 109.369C161.324 109.577 161.096 109.76 160.804 109.915C160.512 110.071 160.135 110.149 159.671 110.149ZM159.999 108.881C160.426 108.881 160.787 108.769 161.082 108.543C161.381 108.315 161.606 107.998 161.759 107.594C161.914 107.189 161.992 106.719 161.992 106.182C161.992 105.652 161.916 105.187 161.764 104.79C161.611 104.392 161.387 104.082 161.092 103.86C160.797 103.638 160.433 103.527 159.999 103.527C159.551 103.527 159.178 103.643 158.88 103.875C158.582 104.107 158.356 104.424 158.204 104.825C158.055 105.226 157.98 105.678 157.98 106.182C157.98 106.692 158.056 107.151 158.209 107.559C158.361 107.967 158.587 108.29 158.885 108.528C159.187 108.764 159.558 108.881 159.999 108.881ZM170.458 104.228L169.111 104.467C169.054 104.294 168.965 104.13 168.842 103.974C168.723 103.819 168.56 103.691 168.355 103.592C168.149 103.492 167.892 103.442 167.584 103.442C167.163 103.442 166.812 103.537 166.53 103.726C166.249 103.911 166.108 104.152 166.108 104.447C166.108 104.702 166.202 104.907 166.391 105.063C166.58 105.219 166.885 105.347 167.306 105.446L168.519 105.724C169.222 105.887 169.745 106.137 170.09 106.475C170.435 106.813 170.607 107.252 170.607 107.793C170.607 108.25 170.474 108.658 170.209 109.016C169.947 109.37 169.581 109.649 169.111 109.851C168.643 110.053 168.101 110.154 167.485 110.154C166.63 110.154 165.932 109.972 165.392 109.607C164.852 109.239 164.52 108.717 164.397 108.041L165.834 107.822C165.924 108.197 166.108 108.48 166.386 108.673C166.665 108.862 167.027 108.956 167.475 108.956C167.962 108.956 168.352 108.855 168.643 108.653C168.935 108.447 169.081 108.197 169.081 107.902C169.081 107.663 168.991 107.463 168.812 107.3C168.637 107.138 168.366 107.015 168.002 106.933L166.709 106.649C165.997 106.487 165.47 106.228 165.128 105.874C164.79 105.519 164.621 105.07 164.621 104.526C164.621 104.076 164.747 103.681 164.999 103.343C165.251 103.005 165.599 102.741 166.043 102.553C166.487 102.36 166.996 102.264 167.569 102.264C168.395 102.264 169.044 102.443 169.518 102.801C169.992 103.156 170.305 103.631 170.458 104.228ZM175.922 110L173.675 102.364H175.211L176.708 107.972H176.782L178.284 102.364H179.82L181.311 107.947H181.386L182.872 102.364H184.409L182.166 110H180.65L179.099 104.487H178.985L177.433 110H175.922ZM184.979 110V102.364H186.466V110H184.979ZM185.73 101.185C185.471 101.185 185.249 101.099 185.064 100.927C184.881 100.751 184.79 100.542 184.79 100.3C184.79 100.055 184.881 99.8464 185.064 99.674C185.249 99.4983 185.471 99.4105 185.73 99.4105C185.988 99.4105 186.209 99.4983 186.391 99.674C186.577 99.8464 186.67 100.055 186.67 100.3C186.67 100.542 186.577 100.751 186.391 100.927C186.209 101.099 185.988 101.185 185.73 101.185ZM191.19 102.364V103.557H187.019V102.364H191.19ZM188.138 100.534H189.624V107.758C189.624 108.046 189.667 108.263 189.753 108.409C189.84 108.552 189.951 108.649 190.086 108.702C190.226 108.752 190.376 108.777 190.539 108.777C190.658 108.777 190.763 108.769 190.852 108.752C190.942 108.736 191.011 108.722 191.061 108.712L191.329 109.94C191.243 109.973 191.121 110.007 190.961 110.04C190.802 110.076 190.604 110.096 190.365 110.099C189.974 110.106 189.609 110.036 189.271 109.891C188.933 109.745 188.66 109.519 188.451 109.214C188.242 108.91 188.138 108.527 188.138 108.066V100.534ZM193.645 105.466V110H192.159V99.8182H193.625V103.607H193.72C193.899 103.196 194.172 102.869 194.54 102.627C194.908 102.385 195.388 102.264 195.982 102.264C196.505 102.264 196.963 102.372 197.354 102.587C197.748 102.803 198.053 103.124 198.269 103.552C198.487 103.976 198.597 104.506 198.597 105.143V110H197.11V105.322C197.11 104.762 196.966 104.327 196.678 104.019C196.389 103.708 195.988 103.552 195.475 103.552C195.123 103.552 194.808 103.626 194.53 103.776C194.255 103.925 194.038 104.143 193.879 104.432C193.723 104.717 193.645 105.062 193.645 105.466ZM206.24 102.364V103.557H201.924V102.364H206.24ZM203.108 110V101.479C203.108 101.001 203.212 100.605 203.421 100.29C203.63 99.9723 203.906 99.7353 204.251 99.5795C204.596 99.4205 204.97 99.3409 205.375 99.3409C205.673 99.3409 205.928 99.3658 206.14 99.4155C206.352 99.4619 206.51 99.505 206.613 99.5447L206.265 100.748C206.195 100.728 206.106 100.705 205.996 100.678C205.887 100.648 205.754 100.634 205.598 100.634C205.237 100.634 204.979 100.723 204.823 100.902C204.67 101.081 204.594 101.339 204.594 101.678V110H203.108ZM208.42 99.8182V110H206.934V99.8182H208.42ZM211.802 110.169C211.318 110.169 210.881 110.08 210.49 109.901C210.099 109.718 209.789 109.455 209.56 109.11C209.335 108.765 209.222 108.343 209.222 107.842C209.222 107.411 209.305 107.057 209.47 106.778C209.636 106.5 209.86 106.28 210.142 106.117C210.423 105.955 210.738 105.832 211.086 105.749C211.434 105.666 211.789 105.603 212.15 105.56C212.608 105.507 212.979 105.464 213.264 105.431C213.549 105.395 213.756 105.337 213.885 105.257C214.015 105.178 214.079 105.048 214.079 104.869V104.835C214.079 104.4 213.956 104.064 213.711 103.825C213.469 103.587 213.108 103.467 212.627 103.467C212.127 103.467 211.733 103.578 211.444 103.8C211.159 104.019 210.962 104.263 210.853 104.531L209.456 104.213C209.621 103.749 209.863 103.375 210.181 103.089C210.503 102.801 210.872 102.592 211.29 102.463C211.708 102.33 212.147 102.264 212.608 102.264C212.912 102.264 213.236 102.301 213.577 102.374C213.922 102.443 214.243 102.572 214.541 102.761C214.843 102.95 215.09 103.22 215.282 103.572C215.474 103.92 215.571 104.372 215.571 104.929V110H214.119V108.956H214.059C213.963 109.148 213.819 109.337 213.627 109.523C213.434 109.708 213.188 109.862 212.886 109.985C212.584 110.108 212.223 110.169 211.802 110.169ZM212.125 108.976C212.536 108.976 212.888 108.895 213.179 108.732C213.474 108.57 213.698 108.358 213.85 108.096C214.006 107.831 214.084 107.547 214.084 107.246V106.261C214.031 106.314 213.928 106.364 213.776 106.411C213.627 106.454 213.456 106.492 213.264 106.525C213.072 106.555 212.884 106.583 212.702 106.609C212.52 106.633 212.367 106.652 212.245 106.669C211.956 106.705 211.693 106.767 211.454 106.853C211.219 106.939 211.03 107.063 210.887 107.226C210.748 107.385 210.679 107.597 210.679 107.862C210.679 108.23 210.814 108.509 211.086 108.697C211.358 108.883 211.704 108.976 212.125 108.976ZM222.433 104.228L221.086 104.467C221.029 104.294 220.94 104.13 220.817 103.974C220.698 103.819 220.535 103.691 220.33 103.592C220.124 103.492 219.867 103.442 219.559 103.442C219.138 103.442 218.787 103.537 218.505 103.726C218.224 103.911 218.083 104.152 218.083 104.447C218.083 104.702 218.177 104.907 218.366 105.063C218.555 105.219 218.86 105.347 219.281 105.446L220.494 105.724C221.197 105.887 221.72 106.137 222.065 106.475C222.41 106.813 222.582 107.252 222.582 107.793C222.582 108.25 222.449 108.658 222.184 109.016C221.922 109.37 221.556 109.649 221.086 109.851C220.618 110.053 220.076 110.154 219.46 110.154C218.605 110.154 217.907 109.972 217.367 109.607C216.827 109.239 216.495 108.717 216.372 108.041L217.809 107.822C217.899 108.197 218.083 108.48 218.361 108.673C218.64 108.862 219.002 108.956 219.45 108.956C219.937 108.956 220.327 108.855 220.618 108.653C220.91 108.447 221.056 108.197 221.056 107.902C221.056 107.663 220.966 107.463 220.787 107.3C220.612 107.138 220.341 107.015 219.977 106.933L218.684 106.649C217.972 106.487 217.445 106.228 217.103 105.874C216.765 105.519 216.596 105.07 216.596 104.526C216.596 104.076 216.722 103.681 216.974 103.343C217.226 103.005 217.574 102.741 218.018 102.553C218.462 102.36 218.971 102.264 219.544 102.264C220.37 102.264 221.019 102.443 221.493 102.801C221.967 103.156 222.28 103.631 222.433 104.228ZM224.863 105.466V110H223.376V99.8182H224.843V103.607H224.937C225.116 103.196 225.39 102.869 225.758 102.627C226.126 102.385 226.606 102.264 227.2 102.264C227.723 102.264 228.181 102.372 228.572 102.587C228.966 102.803 229.271 103.124 229.486 103.552C229.705 103.976 229.815 104.506 229.815 105.143V110H228.328V105.322C228.328 104.762 228.184 104.327 227.896 104.019C227.607 103.708 227.206 103.552 226.692 103.552C226.341 103.552 226.026 103.626 225.748 103.776C225.473 103.925 225.256 104.143 225.097 104.432C224.941 104.717 224.863 105.062 224.863 105.466ZM234.175 110.154C233.436 110.154 232.799 109.987 232.266 109.652C231.735 109.314 231.328 108.848 231.043 108.255C230.758 107.662 230.615 106.982 230.615 106.217C230.615 105.441 230.761 104.757 231.053 104.163C231.344 103.567 231.755 103.101 232.286 102.766C232.816 102.432 233.441 102.264 234.16 102.264C234.74 102.264 235.257 102.372 235.711 102.587C236.165 102.799 236.531 103.098 236.81 103.482C237.092 103.867 237.259 104.316 237.312 104.83H235.865C235.786 104.472 235.603 104.163 235.318 103.905C235.037 103.646 234.659 103.517 234.185 103.517C233.771 103.517 233.408 103.626 233.096 103.845C232.788 104.061 232.548 104.369 232.375 104.77C232.203 105.168 232.117 105.638 232.117 106.182C232.117 106.739 232.201 107.219 232.37 107.624C232.539 108.028 232.778 108.341 233.086 108.563C233.398 108.785 233.764 108.896 234.185 108.896C234.467 108.896 234.722 108.845 234.95 108.742C235.182 108.636 235.376 108.485 235.532 108.29C235.691 108.094 235.802 107.859 235.865 107.584H237.312C237.259 108.078 237.098 108.518 236.83 108.906C236.561 109.294 236.202 109.599 235.751 109.821C235.303 110.043 234.778 110.154 234.175 110.154ZM240.284 110.169C239.8 110.169 239.363 110.08 238.971 109.901C238.58 109.718 238.27 109.455 238.042 109.11C237.816 108.765 237.704 108.343 237.704 107.842C237.704 107.411 237.787 107.057 237.952 106.778C238.118 106.5 238.342 106.28 238.623 106.117C238.905 105.955 239.22 105.832 239.568 105.749C239.916 105.666 240.271 105.603 240.632 105.56C241.089 105.507 241.461 105.464 241.746 105.431C242.031 105.395 242.238 105.337 242.367 105.257C242.496 105.178 242.561 105.048 242.561 104.869V104.835C242.561 104.4 242.438 104.064 242.193 103.825C241.951 103.587 241.59 103.467 241.109 103.467C240.609 103.467 240.214 103.578 239.926 103.8C239.641 104.019 239.444 104.263 239.334 104.531L237.937 104.213C238.103 103.749 238.345 103.375 238.663 103.089C238.985 102.801 239.354 102.592 239.772 102.463C240.189 102.33 240.629 102.264 241.089 102.264C241.394 102.264 241.717 102.301 242.059 102.374C242.403 102.443 242.725 102.572 243.023 102.761C243.325 102.95 243.572 103.22 243.764 103.572C243.956 103.92 244.052 104.372 244.052 104.929V110H242.601V108.956H242.541C242.445 109.148 242.301 109.337 242.109 109.523C241.916 109.708 241.669 109.862 241.368 109.985C241.066 110.108 240.705 110.169 240.284 110.169ZM240.607 108.976C241.018 108.976 241.369 108.895 241.661 108.732C241.956 108.57 242.18 108.358 242.332 108.096C242.488 107.831 242.566 107.547 242.566 107.246V106.261C242.513 106.314 242.41 106.364 242.258 106.411C242.109 106.454 241.938 106.492 241.746 106.525C241.553 106.555 241.366 106.583 241.184 106.609C241.002 106.633 240.849 106.652 240.726 106.669C240.438 106.705 240.175 106.767 239.936 106.853C239.701 106.939 239.512 107.063 239.369 107.226C239.23 107.385 239.16 107.597 239.16 107.862C239.16 108.23 239.296 108.509 239.568 108.697C239.84 108.883 240.186 108.976 240.607 108.976ZM245.192 110V102.364H246.629V103.577H246.709C246.848 103.166 247.093 102.843 247.444 102.607C247.799 102.369 248.2 102.249 248.648 102.249C248.74 102.249 248.85 102.253 248.976 102.259C249.105 102.266 249.206 102.274 249.279 102.284V103.706C249.219 103.689 249.113 103.671 248.961 103.651C248.808 103.628 248.656 103.616 248.503 103.616C248.152 103.616 247.839 103.691 247.564 103.84C247.292 103.986 247.077 104.19 246.917 104.452C246.758 104.71 246.679 105.005 246.679 105.337V110H245.192ZM252.311 110.149C251.694 110.149 251.144 109.992 250.66 109.677C250.179 109.359 249.802 108.906 249.527 108.32C249.255 107.73 249.119 107.022 249.119 106.197C249.119 105.371 249.256 104.665 249.531 104.079C249.81 103.492 250.191 103.043 250.675 102.732C251.159 102.42 251.707 102.264 252.321 102.264C252.795 102.264 253.176 102.344 253.464 102.503C253.756 102.659 253.981 102.841 254.14 103.05C254.303 103.259 254.429 103.442 254.518 103.602H254.607V99.8182H256.094V110H254.642V108.812H254.518C254.429 108.974 254.299 109.16 254.13 109.369C253.964 109.577 253.736 109.76 253.444 109.915C253.152 110.071 252.775 110.149 252.311 110.149ZM252.639 108.881C253.066 108.881 253.428 108.769 253.723 108.543C254.021 108.315 254.246 107.998 254.399 107.594C254.554 107.189 254.632 106.719 254.632 106.182C254.632 105.652 254.556 105.187 254.404 104.79C254.251 104.392 254.027 104.082 253.732 103.86C253.438 103.638 253.073 103.527 252.639 103.527C252.191 103.527 251.818 103.643 251.52 103.875C251.222 104.107 250.996 104.424 250.844 104.825C250.695 105.226 250.62 105.678 250.62 106.182C250.62 106.692 250.696 107.151 250.849 107.559C251.001 107.967 251.227 108.29 251.525 108.528C251.827 108.764 252.198 108.881 252.639 108.881ZM263.098 104.228L261.751 104.467C261.694 104.294 261.605 104.13 261.482 103.974C261.363 103.819 261.2 103.691 260.995 103.592C260.789 103.492 260.533 103.442 260.224 103.442C259.803 103.442 259.452 103.537 259.17 103.726C258.889 103.911 258.748 104.152 258.748 104.447C258.748 104.702 258.842 104.907 259.031 105.063C259.22 105.219 259.525 105.347 259.946 105.446L261.159 105.724C261.862 105.887 262.385 106.137 262.73 106.475C263.075 106.813 263.247 107.252 263.247 107.793C263.247 108.25 263.115 108.658 262.849 109.016C262.588 109.37 262.221 109.649 261.751 109.851C261.283 110.053 260.741 110.154 260.125 110.154C259.27 110.154 258.572 109.972 258.032 109.607C257.492 109.239 257.16 108.717 257.038 108.041L258.474 107.822C258.564 108.197 258.748 108.48 259.026 108.673C259.305 108.862 259.668 108.956 260.115 108.956C260.602 108.956 260.992 108.855 261.283 108.653C261.575 108.447 261.721 108.197 261.721 107.902C261.721 107.663 261.631 107.463 261.452 107.3C261.277 107.138 261.007 107.015 260.642 106.933L259.349 106.649C258.637 106.487 258.11 106.228 257.768 105.874C257.43 105.519 257.261 105.07 257.261 104.526C257.261 104.076 257.387 103.681 257.639 103.343C257.891 103.005 258.239 102.741 258.683 102.553C259.127 102.36 259.636 102.264 260.209 102.264C261.035 102.264 261.684 102.443 262.158 102.801C262.632 103.156 262.945 103.631 263.098 104.228ZM265.021 110.094C264.749 110.094 264.515 109.998 264.32 109.806C264.124 109.611 264.027 109.375 264.027 109.1C264.027 108.828 264.124 108.596 264.32 108.404C264.515 108.209 264.749 108.111 265.021 108.111C265.293 108.111 265.526 108.209 265.722 108.404C265.917 108.596 266.015 108.828 266.015 109.1C266.015 109.282 265.969 109.45 265.876 109.602C265.786 109.751 265.667 109.871 265.518 109.96C265.369 110.05 265.203 110.094 265.021 110.094Z" fill="#3A3A3A"/>
<path d="M264.362 152.354H255V143.396C255 143.312 254.973 143.231 254.924 143.163C254.875 143.096 254.806 143.046 254.727 143.02C254.647 142.994 254.561 142.994 254.482 143.02C254.403 143.045 254.333 143.095 254.284 143.163L245.203 155.424L244.802 155.986C244.687 156.141 244.618 156.324 244.602 156.516C244.585 156.708 244.622 156.901 244.709 157.073C244.796 157.245 244.928 157.39 245.092 157.491C245.256 157.592 245.445 157.645 245.638 157.645H255V166.604C255 166.688 255.027 166.769 255.076 166.837C255.125 166.904 255.194 166.954 255.273 166.98C255.353 167.006 255.438 167.006 255.518 166.98C255.597 166.955 255.667 166.905 255.716 166.837L264.797 154.576L265.198 154.014C265.313 153.859 265.383 153.676 265.399 153.483C265.416 153.291 265.379 153.098 265.292 152.926C265.205 152.754 265.072 152.609 264.908 152.508C264.744 152.407 264.555 152.354 264.362 152.354Z" fill="#3ECF8E"/>
<path d="M167.45 158V149.273H170.399C171.084 149.273 171.644 149.396 172.078 149.643C172.516 149.888 172.84 150.219 173.05 150.636C173.26 151.054 173.365 151.52 173.365 152.034C173.365 152.548 173.26 153.016 173.05 153.436C172.843 153.857 172.522 154.192 172.087 154.442C171.652 154.689 171.095 154.812 170.416 154.812H168.303V153.875H170.382C170.851 153.875 171.227 153.794 171.512 153.632C171.796 153.47 172.002 153.251 172.129 152.976C172.26 152.697 172.325 152.384 172.325 152.034C172.325 151.685 172.26 151.372 172.129 151.097C172.002 150.821 171.794 150.605 171.507 150.449C171.22 150.29 170.84 150.21 170.365 150.21H168.507V158H167.45ZM177.88 158.136C177.289 158.136 176.771 157.996 176.325 157.714C175.882 157.433 175.535 157.04 175.285 156.534C175.038 156.028 174.914 155.437 174.914 154.761C174.914 154.08 175.038 153.484 175.285 152.976C175.535 152.467 175.882 152.072 176.325 151.791C176.771 151.51 177.289 151.369 177.88 151.369C178.471 151.369 178.988 151.51 179.431 151.791C179.877 152.072 180.224 152.467 180.471 152.976C180.721 153.484 180.846 154.08 180.846 154.761C180.846 155.437 180.721 156.028 180.471 156.534C180.224 157.04 179.877 157.433 179.431 157.714C178.988 157.996 178.471 158.136 177.88 158.136ZM177.88 157.233C178.329 157.233 178.698 157.118 178.988 156.888C179.278 156.658 179.492 156.355 179.632 155.98C179.771 155.605 179.84 155.199 179.84 154.761C179.84 154.324 179.771 153.916 179.632 153.538C179.492 153.161 179.278 152.855 178.988 152.622C178.698 152.389 178.329 152.273 177.88 152.273C177.431 152.273 177.062 152.389 176.772 152.622C176.482 152.855 176.268 153.161 176.129 153.538C175.989 153.916 175.92 154.324 175.92 154.761C175.92 155.199 175.989 155.605 176.129 155.98C176.268 156.355 176.482 156.658 176.772 156.888C177.062 157.118 177.431 157.233 177.88 157.233ZM184.001 158L182.007 151.455H183.064L184.479 156.466H184.547L185.945 151.455H187.019L188.399 156.449H188.467L189.882 151.455H190.939L188.945 158H187.956L186.524 152.972H186.422L184.99 158H184.001ZM195.15 158.136C194.519 158.136 193.975 157.997 193.518 157.719C193.064 157.438 192.713 157.045 192.466 156.543C192.221 156.037 192.099 155.449 192.099 154.778C192.099 154.108 192.221 153.517 192.466 153.006C192.713 152.491 193.056 152.091 193.497 151.804C193.94 151.514 194.457 151.369 195.048 151.369C195.389 151.369 195.725 151.426 196.058 151.54C196.39 151.653 196.693 151.838 196.966 152.094C197.238 152.347 197.456 152.682 197.617 153.099C197.779 153.517 197.86 154.031 197.86 154.642V155.068H192.815V154.199H196.838C196.838 153.83 196.764 153.5 196.616 153.21C196.471 152.92 196.264 152.692 195.994 152.524C195.727 152.357 195.412 152.273 195.048 152.273C194.647 152.273 194.301 152.372 194.008 152.571C193.718 152.767 193.495 153.023 193.339 153.338C193.183 153.653 193.105 153.991 193.105 154.352V154.932C193.105 155.426 193.19 155.845 193.36 156.189C193.534 156.53 193.774 156.79 194.081 156.969C194.387 157.145 194.744 157.233 195.15 157.233C195.414 157.233 195.653 157.196 195.866 157.122C196.082 157.045 196.268 156.932 196.424 156.781C196.581 156.628 196.701 156.437 196.787 156.21L197.758 156.483C197.656 156.812 197.484 157.102 197.242 157.352C197.001 157.599 196.703 157.793 196.348 157.932C195.992 158.068 195.593 158.136 195.15 158.136ZM199.75 158V151.455H200.722V152.443H200.79C200.909 152.119 201.125 151.857 201.438 151.655C201.75 151.453 202.102 151.352 202.495 151.352C202.568 151.352 202.661 151.354 202.772 151.357C202.882 151.359 202.966 151.364 203.023 151.369V152.392C202.989 152.384 202.911 152.371 202.789 152.354C202.669 152.334 202.543 152.324 202.409 152.324C202.091 152.324 201.807 152.391 201.557 152.524C201.31 152.655 201.114 152.837 200.969 153.07C200.827 153.3 200.756 153.562 200.756 153.858V158H199.75ZM207.12 158.136C206.489 158.136 205.945 157.997 205.488 157.719C205.034 157.438 204.683 157.045 204.436 156.543C204.191 156.037 204.069 155.449 204.069 154.778C204.069 154.108 204.191 153.517 204.436 153.006C204.683 152.491 205.026 152.091 205.467 151.804C205.91 151.514 206.427 151.369 207.018 151.369C207.359 151.369 207.695 151.426 208.028 151.54C208.36 151.653 208.663 151.838 208.936 152.094C209.208 152.347 209.426 152.682 209.587 153.099C209.749 153.517 209.83 154.031 209.83 154.642V155.068H204.785V154.199H208.808C208.808 153.83 208.734 153.5 208.586 153.21C208.441 152.92 208.234 152.692 207.964 152.524C207.697 152.357 207.382 152.273 207.018 152.273C206.617 152.273 206.271 152.372 205.978 152.571C205.688 152.767 205.465 153.023 205.309 153.338C205.153 153.653 205.075 153.991 205.075 154.352V154.932C205.075 155.426 205.16 155.845 205.33 156.189C205.504 156.53 205.744 156.79 206.051 156.969C206.357 157.145 206.714 157.233 207.12 157.233C207.384 157.233 207.623 157.196 207.836 157.122C208.052 157.045 208.238 156.932 208.394 156.781C208.551 156.628 208.671 156.437 208.757 156.21L209.728 156.483C209.626 156.812 209.454 157.102 209.212 157.352C208.971 157.599 208.673 157.793 208.318 157.932C207.962 158.068 207.563 158.136 207.12 158.136ZM214.192 158.136C213.646 158.136 213.165 157.999 212.747 157.723C212.33 157.445 212.003 157.053 211.767 156.547C211.531 156.038 211.413 155.438 211.413 154.744C211.413 154.057 211.531 153.46 211.767 152.955C212.003 152.449 212.331 152.058 212.751 151.783C213.172 151.507 213.658 151.369 214.209 151.369C214.635 151.369 214.972 151.44 215.219 151.582C215.469 151.722 215.659 151.881 215.79 152.06C215.923 152.236 216.027 152.381 216.101 152.494H216.186V149.273H217.192V158H216.22V156.994H216.101C216.027 157.114 215.922 157.264 215.786 157.446C215.649 157.625 215.455 157.786 215.202 157.928C214.949 158.067 214.612 158.136 214.192 158.136ZM214.328 157.233C214.732 157.233 215.072 157.128 215.351 156.918C215.629 156.705 215.841 156.411 215.986 156.036C216.131 155.658 216.203 155.222 216.203 154.727C216.203 154.239 216.132 153.811 215.99 153.445C215.848 153.075 215.638 152.788 215.359 152.584C215.081 152.376 214.737 152.273 214.328 152.273C213.902 152.273 213.547 152.382 213.263 152.601C212.982 152.817 212.77 153.111 212.628 153.483C212.489 153.852 212.419 154.267 212.419 154.727C212.419 155.193 212.49 155.616 212.632 155.997C212.777 156.375 212.99 156.676 213.271 156.901C213.555 157.122 213.908 157.233 214.328 157.233ZM223.405 158V149.273H224.41V152.494H224.496C224.569 152.381 224.672 152.236 224.802 152.06C224.936 151.881 225.126 151.722 225.373 151.582C225.623 151.44 225.962 151.369 226.388 151.369C226.939 151.369 227.425 151.507 227.845 151.783C228.266 152.058 228.594 152.449 228.829 152.955C229.065 153.46 229.183 154.057 229.183 154.744C229.183 155.438 229.065 156.038 228.829 156.547C228.594 157.053 228.267 157.445 227.849 157.723C227.432 157.999 226.95 158.136 226.405 158.136C225.984 158.136 225.648 158.067 225.395 157.928C225.142 157.786 224.947 157.625 224.811 157.446C224.675 157.264 224.569 157.114 224.496 156.994H224.376V158H223.405ZM224.393 154.727C224.393 155.222 224.466 155.658 224.611 156.036C224.756 156.411 224.967 156.705 225.246 156.918C225.524 157.128 225.865 157.233 226.268 157.233C226.689 157.233 227.04 157.122 227.321 156.901C227.605 156.676 227.818 156.375 227.96 155.997C228.105 155.616 228.177 155.193 228.177 154.727C228.177 154.267 228.106 153.852 227.964 153.483C227.825 153.111 227.614 152.817 227.329 152.601C227.048 152.382 226.694 152.273 226.268 152.273C225.859 152.273 225.516 152.376 225.237 152.584C224.959 152.788 224.748 153.075 224.606 153.445C224.464 153.811 224.393 154.239 224.393 154.727ZM231.495 160.455C231.324 160.455 231.172 160.44 231.039 160.412C230.905 160.386 230.813 160.361 230.762 160.335L231.018 159.449C231.262 159.511 231.478 159.534 231.665 159.517C231.853 159.5 232.019 159.416 232.164 159.266C232.312 159.118 232.447 158.878 232.569 158.545L232.756 158.034L230.336 151.455H231.427L233.233 156.67H233.302L235.108 151.455H236.199L233.421 158.955C233.296 159.293 233.141 159.572 232.956 159.794C232.772 160.018 232.557 160.185 232.313 160.293C232.072 160.401 231.799 160.455 231.495 160.455Z" fill="#3A3A3A"/>
<path d="M274.022 157.403V151.778H274.977V157.403H274.022ZM271.687 155.068V154.114H277.312V155.068H271.687Z" fill="#3A3A3A"/>
<g clip-path="url(#clip0_3_2)">
<path d="M294.572 143C294.396 143 294.262 143.001 294.214 143.007C294.162 143.012 293.998 143.028 293.85 143.04C290.441 143.347 287.249 145.186 285.226 148.012C284.1 149.584 283.38 151.367 283.108 153.255C283.012 153.914 283 154.109 283 155.002C283 155.896 283.012 156.091 283.108 156.75C283.76 161.256 286.967 165.042 291.317 166.444C292.096 166.696 292.917 166.867 293.85 166.97C294.214 167.01 295.786 167.01 296.149 166.97C297.761 166.792 299.127 166.393 300.473 165.706C300.68 165.6 300.72 165.572 300.691 165.548C300.673 165.535 299.793 164.355 298.737 162.928L296.818 160.336L294.413 156.778C293.09 154.822 292.002 153.222 291.992 153.222C291.983 153.22 291.974 154.801 291.969 156.731C291.962 160.111 291.96 160.247 291.917 160.327C291.856 160.442 291.809 160.489 291.711 160.541C291.636 160.578 291.57 160.585 291.216 160.585H290.81L290.702 160.517C290.635 160.475 290.581 160.416 290.545 160.346L290.496 160.24L290.501 155.537L290.508 150.832L290.58 150.74C290.618 150.691 290.698 150.628 290.754 150.597C290.85 150.55 290.887 150.546 291.293 150.546C291.772 150.546 291.852 150.564 291.976 150.7C292.011 150.738 293.313 152.699 294.871 155.061C296.448 157.452 298.026 159.842 299.605 162.232L301.506 165.11L301.602 165.047C302.453 164.493 303.354 163.705 304.067 162.884C305.585 161.141 306.564 159.016 306.892 156.75C306.988 156.091 307 155.896 307 155.002C307 154.109 306.988 153.914 306.892 153.255C306.24 148.749 303.033 144.963 298.683 143.56C297.916 143.312 297.1 143.14 296.185 143.037C296.016 143.019 295.101 143 294.572 143ZM298.641 150.217C298.988 150.217 299.049 150.222 299.126 150.264C299.239 150.32 299.331 150.428 299.364 150.541C299.382 150.602 299.387 151.906 299.382 154.845L299.375 159.063L298.632 157.923L297.886 156.783V153.717C297.886 151.735 297.895 150.62 297.909 150.566C297.947 150.435 298.029 150.332 298.141 150.271C298.237 150.221 298.272 150.217 298.641 150.217Z" fill="black"/>
</g>
<defs>
<linearGradient id="paint0_linear_3_2" x1="0" y1="0" x2="243.662" y2="253.403" gradientUnits="userSpaceOnUse">
<stop stop-color="#F59E0B"/>
<stop offset="1" stop-color="#6366F1"/>
</linearGradient>
<clipPath id="clip0_3_2">
<rect width="24" height="24" fill="white" transform="translate(283 143)"/>
</clipPath>
</defs>
</svg>
